<svg xmlns="http://www.w3.org/2000/svg" width="64" height="64" viewBox="0 0 64 64">
<g>
<path d="M 25.39 53.42 C24.74,55.12 21.27,55.36 16.82,54.02 C12.59,52.74 7.04,48.01 4.93,43.87 C2.86,39.80 2.24,29.59 4.00,28.50 C4.55,28.16 5.00,26.63 5.00,25.10 C5.00,21.45 8.16,18.57 11.30,19.36 C13.21,19.84 13.93,19.42 14.95,17.23 C18.58,9.38 19.48,7.93 22.56,4.94 C25.81,1.79 25.97,1.75 28.45,3.38 C29.85,4.29 31.00,5.73 31.00,6.56 C31.00,7.88 32.52,11.02 37.84,20.71 C39.02,22.85 38.96,23.32 37.34,24.54 C36.33,25.31 34.36,25.95 32.97,25.97 C31.58,25.99 29.44,26.70 28.22,27.56 C26.15,29.01 26.00,29.87 26.00,40.47 C26.00,46.72 25.73,52.55 25.39,53.42 ZM 51.40 59.51 C49.06,60.88 47.00,61.99 46.82,61.97 C44.28,61.73 36.00,54.19 36.00,52.12 C36.00,51.30 35.17,48.80 34.15,46.57 C32.84,43.70 32.43,41.00 32.73,37.42 L 33.17 32.34 L 39.91 30.17 C48.22,27.49 49.54,27.48 56.46,30.07 C62.62,32.38 62.69,32.55 62.09,43.94 C61.74,50.37 58.22,55.51 51.40,59.51 ZM 41.65 47.52 C43.77,49.39 46.17,50.93 47.00,50.95 C49.20,51.01 56.15,42.01 55.79,39.56 C55.45,37.17 51.00,35.98 51.00,38.28 C51.00,41.22 47.49,43.10 43.26,42.43 C37.55,41.51 36.96,43.38 41.65,47.52 Z" fill="rgb(84,62,228)"/>
<path d="M 25.39 53.42 C25.73,52.55 26.00,46.72 26.00,40.47 C26.00,29.87 26.15,29.01 28.22,27.56 C29.44,26.70 31.58,25.99 32.97,25.97 C34.11,25.95 35.63,25.52 36.70,24.95 C35.60,25.59 33.99,26.25 32.75,26.53 C28.36,27.53 27.00,30.49 27.00,39.07 C27.00,43.27 27.50,48.14 28.12,49.90 C28.73,51.66 28.98,53.36 28.67,53.67 C28.21,54.13 26.30,54.43 24.10,54.55 C24.75,54.31 25.20,53.93 25.39,53.42 ZM 4.70 43.38 C4.61,43.21 4.52,43.04 4.43,42.86 C-1.24,31.66 4.14,15.15 12.42,18.33 C13.30,18.67 14.08,18.43 14.75,17.64 C13.83,19.47 13.09,19.81 11.30,19.36 C8.16,18.57 5.00,21.45 5.00,25.10 C5.00,26.63 4.55,28.16 4.00,28.50 C2.30,29.55 2.81,39.04 4.70,43.38 ZM 32.65 38.90 C32.56,41.77 33.03,44.11 34.15,46.57 C35.17,48.80 36.00,51.30 36.00,52.12 C36.00,53.21 38.29,55.81 40.83,58.07 C39.51,56.99 38.23,55.85 37.31,54.87 C32.83,50.13 31.89,46.98 32.63,39.09 ZM 41.65 47.52 C37.18,43.57 37.51,41.69 42.49,42.32 C39.52,42.28 39.39,44.75 42.56,48.06 C42.99,48.52 43.47,48.95 43.94,49.34 C43.19,48.81 42.41,48.18 41.65,47.52 ZM 23.34 4.19 L 25.71 1.58 L 28.35 3.31 C28.36,3.32 28.37,3.32 28.37,3.33 C26.17,1.89 25.83,1.82 23.34,4.19 ZM 16.14 14.68 C16.21,14.42 16.29,14.14 16.35,13.85 C16.57,12.96 17.50,11.34 18.75,9.61 C18.00,10.87 17.20,12.44 16.14,14.68 ZM 48.92 41.59 C47.60,42.46 45.83,42.88 44.14,42.53 C46.01,42.68 47.69,42.32 48.92,41.59 ZM 17.91 54.32 C17.50,54.25 17.13,54.17 16.82,54.07 C14.90,53.45 12.87,52.27 10.97,50.75 C12.91,52.27 14.99,53.47 16.82,54.02 C17.19,54.13 17.56,54.23 17.91,54.32 ZM 51.40 59.51 C49.06,60.88 47.00,62.00 46.82,62.00 C46.70,61.99 46.53,61.95 46.32,61.85 C46.50,61.92 46.67,61.96 46.82,61.97 C47.00,61.99 49.06,60.88 51.40,59.51 ZM 47.91 50.65 C49.19,49.89 51.01,47.97 52.57,45.91 C51.00,48.00 49.17,49.92 47.91,50.65 ZM 51.35 28.43 C48.10,27.74 45.71,28.30 39.95,30.16 C45.70,28.30 48.10,27.74 51.35,28.43 Z" fill="rgb(92,74,209)"/>
<path d="M 0.00 32.00 L 0.00 0.00 L 32.00 0.00 L 64.00 0.00 L 64.00 32.00 L 64.00 64.00 L 32.00 64.00 L 0.00 64.00 L 0.00 32.00 ZM 51.40 59.51 C58.22,55.51 61.74,50.37 62.09,43.94 C62.69,32.55 62.62,32.38 56.46,30.07 C49.55,27.49 48.22,27.49 39.95,30.16 L 33.26 32.31 L 32.63 39.09 C31.89,46.98 32.83,50.13 37.31,54.87 C39.99,57.71 45.70,61.98 46.82,62.00 C47.00,62.00 49.06,60.88 51.40,59.51 ZM 28.67 53.67 C28.98,53.36 28.73,51.66 28.12,49.90 C27.50,48.14 27.00,43.27 27.00,39.07 C27.00,30.49 28.36,27.53 32.75,26.53 C34.26,26.19 36.33,25.28 37.34,24.53 C38.96,23.31 39.02,22.85 37.84,20.71 C32.52,11.02 31.00,7.88 31.00,6.56 C31.00,5.73 29.81,4.27 28.35,3.31 L 25.71 1.58 L 21.35 6.39 C18.95,9.04 16.70,12.40 16.35,13.85 C15.50,17.44 14.14,18.99 12.42,18.33 C4.14,15.15 -1.24,31.66 4.43,42.86 C6.95,47.84 12.20,52.59 16.82,54.07 C19.57,54.95 27.65,54.68 28.67,53.67 ZM 42.56 48.06 C38.90,44.24 39.64,41.54 44.07,42.51 C47.36,43.24 51.00,41.01 51.00,38.28 C51.00,35.98 55.45,37.17 55.79,39.56 C56.15,42.03 49.21,50.99 46.94,51.00 C46.08,51.00 44.11,49.68 42.56,48.06 Z" fill="rgb(252,251,252)"/>
</g>
</svg>